<?xml version="1.0" standalone="no"?>
<!DOCTYPE svg PUBLIC "-//W3C//DTD SVG 20010904//EN"
 "http://www.w3.org/TR/2001/REC-SVG-20010904/DTD/svg10.dtd">
<svg version="1.0" xmlns="http://www.w3.org/2000/svg"
 width="894.000000pt" height="894.000000pt" viewBox="0 0 894.000000 894.000000"
 preserveAspectRatio="xMidYMid meet">

<g transform="translate(0.000000,894.000000) scale(0.100000,-0.100000)"
fill="#000000" stroke="none">
<path d="M4263 7195 c-17 -7 -289 -226 -605 -487 -315 -260 -726 -600 -913
-754 -355 -294 -375 -314 -375 -389 0 -127 139 -214 250 -157 19 9 161 121
315 248 429 353 1038 856 1262 1042 76 63 129 100 136 95 17 -10 189 -152 984
-810 381 -315 704 -578 718 -583 112 -43 235 45 235 167 0 90 83 16 -1169
1051 -370 306 -687 565 -705 574 -38 21 -90 22 -133 3z"/>
<path d="M4050 6349 c-445 -370 -696 -577 -907 -749 l-202 -165 0 -968 c-1
-1059 -4 -1008 58 -1060 l33 -27 -991 0 c-654 0 -991 3 -991 10 0 15 -786 12
-825 -3 -103 -40 -143 -142 -92 -231 39 -68 65 -81 178 -84 l99 -4 0 -394 0
-394 160 0 160 0 0 395 0 395 180 0 180 0 0 -345 0 -345 160 0 160 0 0 345 0
345 2938 2 c1615 1 3011 2 3102 3 139 0 178 4 250 24 464 126 769 569 720
1046 -43 422 -327 761 -725 865 -110 29 -354 45 -460 30 -500 -71 -870 -555
-815 -1065 6 -56 20 -136 31 -176 27 -101 106 -259 173 -346 l55 -73 -473 0
-474 0 33 33 c18 18 38 51 44 72 8 28 11 319 11 945 l0 906 -102 84 c-57 47
-337 278 -623 515 -713 590 -768 635 -774 634 -3 0 -125 -99 -271 -220z m3410
-1629 c134 -14 240 -49 331 -109 358 -235 412 -721 113 -1026 -105 -108 -256
-179 -404 -192 -75 -6 -233 17 -317 47 -89 31 -162 79 -244 160 -136 134 -194
275 -193 470 0 126 14 192 64 290 90 178 241 300 430 349 90 24 91 24 220 11z"/>
<path d="M3202 2499 c-105 -18 -212 -76 -277 -151 -77 -90 -115 -195 -115
-324 0 -135 44 -248 133 -336 176 -176 493 -185 678 -19 l44 39 -49 51 -49 50
-36 -31 c-80 -71 -214 -104 -317 -79 -146 35 -248 175 -247 336 2 202 185 359
381 327 72 -12 134 -40 175 -77 15 -15 31 -25 36 -23 12 4 91 98 91 107 0 12
-85 70 -143 96 -51 24 -162 46 -222 44 -16 -1 -54 -5 -83 -10z"/>
<path d="M1860 2473 c-12 -26 -245 -564 -346 -800 -24 -57 -44 -105 -44 -108
0 -3 36 -5 81 -3 l80 3 40 95 c22 52 43 101 46 108 4 9 60 12 232 12 l226 0
46 -108 46 -107 82 -3 c53 -2 81 1 81 8 0 6 -67 162 -149 348 -82 185 -172
392 -201 460 l-52 122 -78 0 c-74 0 -77 -1 -90 -27z m179 -362 c45 -107 80
-196 78 -198 -2 -2 -80 -2 -174 -1 l-169 3 85 203 c46 111 88 199 92 195 4 -5
43 -95 88 -202z"/>
<path d="M5230 2188 c0 -328 5 -369 47 -453 70 -136 240 -205 433 -177 132 19
218 78 269 186 43 90 51 160 51 469 l0 277 -80 0 -80 0 0 -300 c0 -275 -2
-304 -20 -353 -11 -29 -32 -65 -48 -80 -56 -53 -150 -76 -239 -56 -46 11 -67
23 -104 59 -27 26 -52 62 -60 85 -9 28 -14 132 -16 348 l-4 307 -75 0 -74 0 0
-312z"/>
<path d="M4020 2425 l0 -65 150 0 150 0 0 -400 0 -400 75 0 c41 0 75 3 76 8 0
4 0 138 0 297 0 160 3 336 6 393 l6 103 151 -3 151 -3 3 68 3 67 -386 0 -385
0 0 -65z"/>
<path d="M6560 2025 l0 -465 75 0 75 0 2 326 3 325 70 -133 c38 -73 104 -200
146 -283 l78 -150 43 -3 43 -3 58 113 c31 62 98 192 147 288 l90 175 0 -327 0
-328 75 0 75 0 0 465 0 465 -83 0 -83 0 -158 -312 c-88 -172 -159 -314 -160
-315 -1 -1 -25 44 -54 100 -28 56 -101 197 -161 312 l-110 210 -85 3 -86 3 0
-466z"/>
</g>
</svg>
