<svg version="1.2" xmlns="http://www.w3.org/2000/svg" viewBox="0 0 300 193" width="300" height="193"><style></style><path  d="m111.6 38.2c-27.6 22.8-31.6 26.5-31.6 28.9 0 3.3 2.3 5.9 5.4 5.9 1.4 0 12.5-8.5 30.6-23.5 15.7-12.9 28.8-23.5 29.2-23.5 0.3 0 13.4 10.6 28.9 23.5 16.5 13.7 29.2 23.5 30.4 23.5 2.5 0 3.9-0.9 5.2-3.4 1.7-3.1 0.4-5.2-7.5-11.8-36.6-30.6-55.6-45.8-57.1-45.8-1 0-16 11.8-33.5 26.2zm39-17.9c2.2 1.7 15.4 12.6 29.2 24.1 22.4 18.6 28.4 24.5 23.8 23.4-0.8-0.2-12.7-9.7-26.6-21.1-13.8-11.5-26.6-21.7-28.5-22.8-3.1-1.8-3.6-1.9-6.2-0.5-1.5 0.8-14.5 11.2-28.8 23-14.3 11.9-26.6 21.6-27.2 21.6-3.5 0 0.1-3.9 14-15.3 8.3-6.8 21.5-17.7 29.2-24.1 7.7-6.4 14.7-11.6 15.5-11.6 0.8 0 3.3 1.5 5.6 3.3z"/><path  d="m121.8 52.8l-22.8 18.7v32.9c0 30 0.2 33.1 1.7 34.9 1.8 2 1.5 2-45.9 1.4-51.9-0.7-50.8-0.8-50.8 4.8 0 3.3 2.6 5.5 6.6 5.5h3.4v13.3 13.2l5.1-0.1h5.1l-0.1-13.2-0.2-13.2h6.6 6.5v11.5 11.5h5 5v-11.5-11.5l105.8-0.2 105.7-0.3 5.7-2.8c19.8-9.7 24.4-35.8 9.3-52.5-2-2.3-6.2-5.4-9.3-6.9-5.1-2.5-6.8-2.8-15.7-2.8-8.3 0-10.8 0.4-14.5 2.2-9.6 4.8-17.2 15.3-18.5 26-0.9 6.7 1.6 16.4 5.5 22.1 1.7 2.3 3 4.5 3 4.7 0 0.3-7.3 0.5-16.2 0.5-15.5 0-16.1-0.1-14.5-1.8 1.5-1.7 1.7-5.4 1.6-33.3v-31.4l-24.3-20c-13.4-10.9-24.8-20-25.2-20.2-0.5-0.1-11.1 8.2-23.6 18.5zm49.7 7.9l19 15.8 0.1 32.9c0.1 30.7 0.2 33 2 34.3 1.3 0.9 5.6 1.3 15.5 1.3 13.2 0 13.9-0.1 16.6-2.4l2.8-2.4-3.5-6.9c-2.9-5.8-3.5-8-3.8-14.8-0.4-8.8 0.6-12.2 5.5-19 9-12.3 30.7-13.9 42.9-3.2 6.6 5.8 9.4 12.2 9.4 21.7-0.1 12.1-5.8 21.4-16.3 26.1l-5.2 2.4h-104.3-104.4l-2.4 2.8c-2.1 2.5-2.4 3.8-2.4 10.8 0 4.6-0.4 7.9-1 7.9-0.6 0-1-3.3-1-7.9 0-6.4-0.4-8.3-2.1-10.5-1.8-2.3-2.8-2.6-8-2.6-5.2 0-6.3 0.4-8.4 2.6-2.3 2.5-2.5 3.5-2.5 12 0 5.6-0.4 9.4-1 9.4-0.6 0-1-3.8-1-9.4 0-10.2-1.7-14.1-6.3-14.8-1.2-0.2-2.1-0.8-1.9-1.3 0.1-0.7 15.2-0.9 43.6-0.6 44 0.4 49.5 0 49.6-3.3 0.1-0.6 0.1-16 0-34.1-0.1-25.6 0.2-33.4 1.2-34.6 0.7-0.9 9.2-8.1 18.8-15.9 9.6-7.9 17.7-14.7 18-15 0.3-0.4 1.4-1.2 2.5-1.7 2.2-1.3 0.3-2.7 28 20.4z"/><path  d="m240.5 92.3c-14 5.4-21.6 20.2-17.1 33 5.5 15.4 23.3 23.4 37.1 16.7 8.4-4.1 15.5-14.9 15.5-23.5 0-11-8.7-22.9-19-25.9-6.2-1.9-12.2-1.9-16.5-0.3zm19.5 6.1c8.1 3.9 13.3 14.8 11.6 24-1 5.4-6.5 12.7-11.6 15.4-3.9 2-5.5 2.3-11.8 1.9-6.1-0.3-8-0.9-11.5-3.3-8.7-6.2-12.3-15.6-9.7-25.3 1.4-5.3 8.9-13.1 14-14.8 4.8-1.6 13.6-0.6 19 2.1z"/></svg>